<svg xmlns="http://www.w3.org/2000/svg" viewBox="0 -0.5 24 24" shape-rendering="crispEdges">
<metadata>Made with Pixels to Svg https://codepen.io/shshaw/pen/XbxvNj</metadata>
<path stroke="#68718f" d="M3 1h1M1 3h1M18 6h1M22 6h1M10 13h1" />
<path stroke="#8298b6" d="M4 1h1M7 1h4M12 1h1M15 1h1M17 1h1M19 1h1M5 10h1M16 11h1M11 13h1M17 13h2M5 14h1M8 14h2M13 14h3M17 14h1M5 15h5M11 15h7M8 16h10M3 21h1" />
<path stroke="#8299b4" d="M5 1h1" />
<path stroke="#8098b4" d="M6 1h1" />
<path stroke="#8298b7" d="M11 1h1M13 1h1M7 14h1M18 14h1M18 15h1M18 16h1" />
<path stroke="#8299b6" d="M14 1h1M18 10h1M9 12h1M20 21h1" />
<path stroke="#8298b4" d="M16 1h1M6 14h1M7 16h1M2 20h1" />
<path stroke="#8098b6" d="M18 1h1M7 11h1M10 14h1" />
<path stroke="#68738f" d="M20 1h1M2 2h1M21 2h1M22 3h1M22 4h1M1 5h1M22 5h1M1 6h1M5 6h2M9 6h4M14 6h2M1 7h1M22 7h1M1 8h1M1 9h1M1 10h1M22 10h1M5 11h1M1 12h1M7 12h1M15 12h2M22 12h1M9 13h1M12 14h1" />
<path stroke="#bfc9db" d="M3 2h1M12 8h1M7 10h1M9 11h1M7 13h1M17 18h1M20 20h1" />
<path stroke="#e8eef4" d="M4 2h1M20 3h1M2 7h1M20 8h1" />
<path stroke="#ffffff" d="M5 2h1M7 2h1M9 2h7M17 2h1M8 7h1M10 7h3M16 7h2" />
<path stroke="#fffdff" d="M6 2h1M16 2h1" />
<path stroke="#fffeff" d="M8 2h1M13 7h1" />
<path stroke="#fffefd" d="M18 2h1" />
<path stroke="#eaeef4" d="M19 2h1M3 3h1M5 3h1M7 3h4M12 3h1M14 3h1M16 3h4M2 4h2M5 4h11M21 4h1M2 5h2M5 5h2M8 5h1M10 5h12M3 6h1M20 6h2M3 7h1M21 7h1M2 9h2M20 9h2M2 10h2M20 10h2M3 11h1" />
<path stroke="#bfcbdb" d="M20 2h1M2 3h1M18 7h1M5 8h2M8 8h4M14 8h2M6 9h2M11 9h3M15 9h4M6 10h1M9 10h2M12 10h1M15 10h3M2 11h1M10 11h6M2 12h2M5 12h1M11 12h1M17 12h2M2 13h2M8 13h1M15 13h2M20 13h1M2 14h1M20 14h1M2 15h2M21 15h1M20 16h1M2 17h2M20 17h1M3 18h11M16 18h1M18 18h2M21 18h1M3 19h1M5 19h6M12 19h1M14 19h5M20 19h2M4 20h2M7 20h2M10 20h3M15 20h1M17 20h3M4 21h8M13 21h1M16 21h4" />
<path stroke="#eaecf4" d="M4 3h1M17 4h1M19 4h2M20 7h1" />
<path stroke="#ebeef4" d="M6 3h1M7 5h1" />
<path stroke="#eaeef7" d="M11 3h1M21 8h1" />
<path stroke="#ebeef6" d="M13 3h1" />
<path stroke="#eaeff4" d="M15 3h1M18 4h1M4 5h1M2 8h1M20 11h1" />
<path stroke="#bfcbd9" d="M21 3h1M8 11h1M21 17h1M13 19h1M6 20h1M12 21h1" />
<path stroke="#68728f" d="M1 4h1M13 6h1M17 11h1M13 13h1" />
<path stroke="#eaeef5" d="M4 4h1" />
<path stroke="#eaeef6" d="M16 4h1M9 5h1M3 8h1" />
<path stroke="#e9eef4" d="M2 6h1" />
<path stroke="#454d60" d="M4 6h1M4 7h1M19 7h1M4 8h1M19 9h1M1 13h1M22 13h1M1 14h1M22 14h1M22 15h1M22 16h1" />
<path stroke="#69738f" d="M7 6h1M8 12h1M14 13h1" />
<path stroke="#68738d" d="M8 6h1M16 6h1" />
<path stroke="#6a738f" d="M17 6h1M22 9h1" />
<path stroke="#464d62" d="M19 6h1" />
<path stroke="#bfc9da" d="M5 7h1M21 11h1M15 21h1" />
<path stroke="#fefffe" d="M6 7h1" />
<path stroke="#fcffff" d="M7 7h1" />
<path stroke="#fffffe" d="M9 7h1M15 7h1" />
<path stroke="#feffff" d="M14 7h1" />
<path stroke="#becbdb" d="M7 8h1M5 9h1M9 9h1M21 13h1M21 16h1M2 18h1M14 18h1M4 19h1M3 20h1" />
<path stroke="#bfcadb" d="M13 8h1M17 8h1M10 9h1M14 10h1M10 12h1M13 12h1M20 12h2M20 15h1M2 16h2M14 21h1" />
<path stroke="#bfcbda" d="M16 8h1M8 9h1M13 10h1M12 12h1M21 14h1" />
<path stroke="#bdcbdb" d="M18 8h1M14 9h1M11 10h1M3 14h1M13 20h1" />
<path stroke="#474d61" d="M19 8h1" />
<path stroke="#68738e" d="M22 8h1M1 11h1M6 11h1M22 11h1M11 14h1" />
<path stroke="#454d63" d="M4 9h1" />
<path stroke="#1e1c1f" d="M4 10h1M12 17h1M17 17h1M21 21h1M19 22h1" />
<path stroke="#bfcada" d="M8 10h1M2 19h1" />
<path stroke="#1e1d1f" d="M19 10h1M19 11h1M19 12h1M4 13h1M19 13h1M4 14h1M19 14h1M4 15h1M19 16h1M4 17h4M9 17h3M13 17h1M15 17h2M19 17h1M1 18h1M22 18h1M1 19h1M22 19h1M22 20h1M2 21h1M3 22h1M7 22h5M13 22h3M17 22h2M20 22h1" />
<path stroke="#1e1f1f" d="M4 11h1M8 17h1M22 17h1M4 22h1" />
<path stroke="#68718e" d="M18 11h1" />
<path stroke="#1e1d1e" d="M4 12h1M6 22h1M16 22h1" />
<path stroke="#becbd9" d="M6 12h1M14 20h1" />
<path stroke="#829ab7" d="M14 12h1" />
<path stroke="#8398b6" d="M5 13h1M5 16h1" />
<path stroke="#829bb4" d="M6 13h1" />
<path stroke="#839bb7" d="M12 13h1" />
<path stroke="#809bb4" d="M16 14h1" />
<path stroke="#474d60" d="M1 15h1" />
<path stroke="#8198b6" d="M10 15h1" />
<path stroke="#1e1d1d" d="M19 15h1M4 16h1M1 20h1M12 22h1" />
<path stroke="#444d60" d="M1 16h1" />
<path stroke="#829ab6" d="M6 16h1" />
<path stroke="#1f1d1f" d="M1 17h1M14 17h1" />
<path stroke="#1e1c1d" d="M18 17h1" />
<path stroke="#bfc8db" d="M15 18h1" />
<path stroke="#bfcad9" d="M20 18h1" />
<path stroke="#becadb" d="M11 19h1" />
<path stroke="#bdc9db" d="M19 19h1" />
<path stroke="#bec9d9" d="M9 20h1" />
<path stroke="#bfc9d9" d="M16 20h1" />
<path stroke="#8298b5" d="M21 20h1" />
<path stroke="#1c1d1f" d="M5 22h1" />
</svg>